<?xml version="1.0" encoding="UTF-8"?>
<!DOCTYPE svg PUBLIC "-//W3C//DTD SVG 1.1//EN" "http://www.w3.org/Graphics/SVG/1.1/DTD/svg11.dtd">
<!-- Creator: CorelDRAW X6 -->
<svg xmlns="http://www.w3.org/2000/svg" xml:space="preserve" width="799px" height="223px" version="1.1" style="shape-rendering:geometricPrecision; text-rendering:geometricPrecision; image-rendering:optimizeQuality; fill-rule:evenodd; clip-rule:evenodd"
viewBox="0 0 799 223"
 xmlns:xlink="http://www.w3.org/1999/xlink">
 <defs>
  <style type="text/css">
   <![CDATA[
    .fil0 {fill:#747474;fill-rule:nonzero}
    .fil1 {fill:url(#id0);fill-rule:nonzero}
    .fil2 {fill:url(#id1);fill-rule:nonzero}
   ]]>
  </style>
  <linearGradient id="id0" gradientUnits="userSpaceOnUse" x1="531.605" y1="192.554" x2="668.576" y2="29.3171">
   <stop offset="0" style="stop-color:#FFCA4C"/>
   <stop offset="0.0901961" style="stop-color:#FFCA4C"/>
   <stop offset="0.321569" style="stop-color:#EF4438"/>
   <stop offset="0.709804" style="stop-color:#8C3734"/>
   <stop offset="1" style="stop-color:#8C3734"/>
  </linearGradient>
  <linearGradient id="id1" gradientUnits="userSpaceOnUse" x1="438.956" y1="74.719" x2="580.25" y2="156.296">
   <stop offset="0" style="stop-color:#3A7650"/>
   <stop offset="0.870588" style="stop-color:#649E4E"/>
   <stop offset="1" style="stop-color:#8EC64C"/>
  </linearGradient>
 </defs>
 <g id="ﾃダx2018_ﾃダx00ab_ﾃダx00ae_ﾃダx00a9__x0020_1">
  <metadata id="CorelCorpID_0Corel-Layer"/>
  <g id="_372080440">
   <g>
    <polygon class="fil0" points="7,205 7,28 28,28 28,205 "/>
    <polygon class="fil0" points="104,205 104,48 52,48 52,28 176,28 176,48 125,48 125,205 "/>
    <path class="fil0" d="M239 21l82 184 -23 0 -23 -54 -71 0 -23 54 -23 0 82 -184zm0 47l0 0 -29 65 58 0 -29 -65z"/>
    <polygon class="fil0" points="340,205 340,28 435,28 435,47 362,47 362,98 435,98 435,117 362,117 362,205 "/>
    <path class="fil0" d="M758 107c12,5 21,11 27,20 6,8 9,18 9,29 0,16 -5,29 -16,39 -11,10 -25,15 -42,15 -14,0 -26,-4 -36,-11 -10,-7 -16,-17 -20,-30l20 -9c3,11 7,19 13,24 6,6 14,8 23,8 11,0 20,-3 26,-9 7,-6 10,-14 10,-24 0,-8 -2,-15 -7,-21 -5,-6 -12,-11 -21,-15l-22 -9c-12,-5 -21,-11 -27,-19 -6,-8 -9,-17 -9,-28 0,-13 5,-23 14,-31 10,-8 22,-12 37,-12 11,0 20,2 28,7 8,5 14,11 19,20l-18 11c-4,-7 -9,-12 -14,-15 -5,-3 -11,-5 -17,-5 -8,0 -15,2 -20,7 -5,5 -8,11 -8,18 0,6 2,12 6,16 4,5 10,9 18,12l26 11z"/>
   </g>
   <path class="fil1" d="M666 112c0,-5 0,-10 -1,-15 -5,-36 -29,-68 -60,-85 -11,-6 -22,-10 -34,-10 -26,1 -36,25 -31,49 6,26 25,46 37,70 15,29 19,64 11,96 -1,5 13,-2 15,-3 38,-18 63,-58 63,-101z"/>
   <path class="fil2" d="M578 181c0,-14 -2,-28 -7,-41 -9,-22 -24,-41 -35,-62 -11,-20 -16,-43 -17,-66 0,-1 0,-2 -1,-3 -1,0 -1,0 -2,0 -30,12 -55,37 -65,68 -10,31 -7,66 10,94 17,28 46,47 78,53 2,0 4,0 4,-2 0,-2 -8,-7 -9,-8 -3,-3 -6,-7 -9,-11 -6,-7 -11,-15 -15,-23 -12,-23 -26,-61 -12,-85 -2,44 18,90 52,117 5,4 10,7 17,9 2,1 5,1 6,-1 1,-1 1,-2 2,-4 3,-11 4,-23 4,-35zm-85 -52l0 0c0,-1 0,-1 0,-2 0,1 0,1 0,2z"/>
  </g>
 </g>
</svg>
